<?xml version="1.0" encoding="utf-8"?>
<!-- Generator: Adobe Illustrator 21.0.0, SVG Export Plug-In . SVG Version: 6.00 Build 0)  -->
<svg version="1.1" id="Layer_1" xmlns="http://www.w3.org/2000/svg" xmlns:xlink="http://www.w3.org/1999/xlink" x="0px" y="0px"
	 viewBox="0 0 22 19" enable-background="new 0 0 22 19" xml:space="preserve">
<g id="Homepage">
	<g id="Homepage-Large" transform="translate(-1043.000000, -1535.000000)">
		<g id="Group-18" transform="translate(0.000000, 460.000000)">
			<path id="Shape" fill="#757575" d="M1059.2,1082l-4.4-6.6c-0.2-0.3-0.5-0.4-0.8-0.4s-0.6,0.1-0.8,0.4l-4.4,6.5h-4.8
				c-0.6,0-1,0.5-1,1c0,0.1,0,0.2,0,0.3l2.5,9.3c0.2,0.8,1,1.5,1.9,1.5h13c0.9,0,1.7-0.6,1.9-1.5l2.5-9.3l0-0.3c0-0.5-0.4-1-1-1
				H1059.2z M1051,1082l3-4.4l3,4.4H1051z M1054,1090c-1.1,0-2-0.9-2-2s0.9-2,2-2s2,0.9,2,2S1055.1,1090,1054,1090z"/>
		</g>
	</g>
</g>
</svg>
