<?xml version="1.0" encoding="utf-8"?>
<!-- Generator: Adobe Illustrator 21.0.0, SVG Export Plug-In . SVG Version: 6.00 Build 0)  -->
<svg version="1.1" id="Layer_1" xmlns="http://www.w3.org/2000/svg" xmlns:xlink="http://www.w3.org/1999/xlink" x="0px" y="0px"
	 viewBox="0 0 20 20" enable-background="new 0 0 20 20" xml:space="preserve">
<g id="Homepage">
	<g id="Homepage-Large" transform="translate(-555.000000, -1535.000000)">
		<g id="Group-18" transform="translate(0.000000, 460.000000)">
			<path id="Shape" fill="#757575" d="M572.1,1077.9l-1.4,1.4c1.4,1.5,2.3,3.5,2.3,5.7c0,4.4-3.6,8-8,8s-8-3.6-8-8
				c0-4.1,3-7.4,7-7.9v2c-2.8,0.5-5,2.9-5,5.9c0,3.3,2.7,6,6,6s6-2.7,6-6c0-1.7-0.7-3.2-1.8-4.2l-1.4,1.4c0.7,0.7,1.2,1.7,1.2,2.8
				c0,2.2-1.8,4-4,4s-4-1.8-4-4c0-1.9,1.3-3.4,3-3.9v2.1c-0.6,0.3-1,1-1,1.7c0,1.1,0.9,2,2,2s2-0.9,2-2c0-0.7-0.4-1.4-1-1.7v-8.3h-1
				c-5.5,0-10,4.5-10,10s4.5,10,10,10s10-4.5,10-10C575,1082.2,573.9,1079.7,572.1,1077.9z"/>
		</g>
	</g>
</g>
</svg>
